<svg class="me-2" width="18" height="16" viewBox="0 0 18 16" fill="none" xmlns="http://www.w3.org/2000/svg">
<path d="M15.4118 15V9.23529M8.82353 15V6.76471M2.23529 15L2.23529 11.7059M9.98197 2.66971L14.2383 4.26585M7.83428 2.97723L3.22372 6.43515M16.2852 3.8324C16.7677 4.31481 16.7677 5.09696 16.2852 5.57937C15.8028 6.06178 15.0207 6.06178 14.5383 5.57937C14.0559 5.09696 14.0559 4.31481 14.5383 3.8324C15.0207 3.34999 15.8028 3.34999 16.2852 3.8324ZM3.10878 6.30299C3.59119 6.7854 3.59119 7.56754 3.10878 8.04996C2.62637 8.53237 1.84422 8.53237 1.36181 8.04996C0.879397 7.56754 0.879397 6.7854 1.36181 6.30299C1.84422 5.82057 2.62637 5.82057 3.10878 6.30299ZM9.69701 1.36181C10.1794 1.84422 10.1794 2.62637 9.69701 3.10878C9.2146 3.59119 8.43246 3.59119 7.95004 3.10878C7.46763 2.62637 7.46763 1.84422 7.95004 1.36181C8.43246 0.879397 9.2146 0.879397 9.69701 1.36181Z" stroke="#C9D2D7" stroke-width="2" stroke-linecap="round" stroke-linejoin="round"/>
</svg>
