<svg class="me-2" width="17" height="17" viewBox="0 0 17 17" fill="none" xmlns="http://www.w3.org/2000/svg">
<path d="M1 1H1.97962C2.16414 1 2.25639 1 2.33064 1.03393C2.39606 1.06383 2.45151 1.11192 2.49036 1.17246C2.53445 1.24116 2.5475 1.33249 2.57359 1.51515L2.92857 4M2.92857 4L3.71749 9.79855C3.8176 10.5344 3.86766 10.9023 4.04357 11.1793C4.19858 11.4233 4.42081 11.6173 4.68352 11.738C4.98165 11.875 5.35296 11.875 6.09558 11.875H12.514C13.2209 11.875 13.5744 11.875 13.8632 11.7478C14.1179 11.6357 14.3364 11.4549 14.4942 11.2257C14.6732 10.9657 14.7393 10.6185 14.8716 9.92407L15.8643 4.71227C15.9109 4.46786 15.9342 4.34565 15.9004 4.25012C15.8708 4.16633 15.8124 4.09576 15.7357 4.05101C15.6481 4 15.5237 4 15.2749 4H2.92857ZM7 15.25C7 15.6642 6.66421 16 6.25 16C5.83579 16 5.5 15.6642 5.5 15.25C5.5 14.8358 5.83579 14.5 6.25 14.5C6.66421 14.5 7 14.8358 7 15.25ZM13 15.25C13 15.6642 12.6642 16 12.25 16C11.8358 16 11.5 15.6642 11.5 15.25C11.5 14.8358 11.8358 14.5 12.25 14.5C12.6642 14.5 13 14.8358 13 15.25Z" stroke="#C9D2D7" stroke-width="2" stroke-linecap="round" stroke-linejoin="round"/>
</svg>
