<svg class="me-2" width="18" height="17" viewBox="0 0 18 17" fill="none" xmlns="http://www.w3.org/2000/svg">
<path d="M6.62952 2.6916L7.50823 1.42882C7.69517 1.16017 8.00175 1 8.32905 1H9.42219C9.74827 1 10.0539 1.15898 10.241 1.426L11.1097 2.66524M6.62952 2.6916C6.36938 3.06273 5.93697 3.24459 5.47801 3.21217M6.62952 2.6916C6.36811 3.06184 5.93697 3.2461 5.47801 3.21217M5.47801 3.21217L3.91893 3.11429C3.59808 3.09414 3.28711 3.22948 3.0832 3.47801L2.39575 4.31584C2.17955 4.57933 2.11245 4.9348 2.21771 5.25898L2.66736 6.64378M2.66736 6.64378C2.73406 6.86003 2.74259 7.0917 2.69486 7.3105M2.66736 6.64378C2.735 6.85965 2.74322 7.09085 2.69454 7.31274M2.69486 7.3105C2.6465 7.52672 2.54282 7.73087 2.38889 7.89619M2.69486 7.3105L2.69454 7.31274M2.38889 7.89619L1.36575 8.9966C1.13735 9.24225 1.04732 9.58605 1.126 9.91211L1.36504 10.9027C1.44346 11.2277 1.67911 11.492 1.99301 11.607L3.39879 12.1222C3.61246 12.2049 3.79706 12.3393 3.93677 12.5086M2.38889 7.89619C2.54377 7.73222 2.6465 7.52873 2.69454 7.31274M3.93677 12.5086C4.07553 12.6784 4.17004 12.8834 4.20671 13.1053M3.93677 12.5086C4.07679 12.6784 4.17162 12.8828 4.20671 13.1053M3.93677 12.5086L3.93455 12.5062C3.92539 12.4951 3.91559 12.4835 3.90611 12.4727M4.20671 13.1053L4.44616 14.5762C4.49943 14.9034 4.71138 15.1829 5.01206 15.3225L5.99696 15.7798C6.28803 15.9149 6.62627 15.9021 6.90633 15.7455L8.23018 15.0048M8.23018 15.0048C8.429 14.8931 8.65089 14.8371 8.87279 14.8369M8.23018 15.0048C8.30889 14.96 8.39139 14.9243 8.4761 14.8975C8.60475 14.8567 8.73877 14.8366 8.87279 14.8369M8.87279 14.8369C8.98816 14.8371 9.10353 14.8524 9.21606 14.8825C9.32068 14.9105 9.42246 14.9514 9.51887 15.0048M8.87279 14.8369C9.09563 14.8366 9.31879 14.8925 9.51887 15.0048M9.51887 15.0048L10.9096 15.7576C11.1908 15.9099 11.528 15.9185 11.8166 15.7806L12.7971 15.3123C13.0967 15.1692 13.3057 14.8867 13.355 14.5584L13.5689 13.1335M13.5689 13.1335C13.604 12.9103 13.6972 12.7039 13.8357 12.5326M13.5689 13.1335C13.6027 12.9098 13.6966 12.7037 13.8357 12.5326M13.8357 12.5326C13.9732 12.3631 14.1556 12.228 14.368 12.1445M13.8357 12.5326C13.9729 12.3624 14.1546 12.227 14.368 12.1445M14.368 12.1445L15.7921 11.5863C16.1001 11.4656 16.3285 11.2005 16.4021 10.878L16.6326 9.86893C16.7061 9.54731 16.6162 9.21015 16.3924 8.96779L15.3605 7.85047M15.3605 7.85047C15.2037 7.68458 15.0943 7.48641 15.0412 7.2758M15.3605 7.85047C15.2868 7.77299 15.2236 7.68829 15.1721 7.59848C15.1133 7.4965 15.0694 7.38795 15.0412 7.2758M15.0412 7.2758C14.9891 7.0667 14.9922 6.84512 15.0583 6.63064L15.5031 5.20507C15.6034 4.88327 15.535 4.53254 15.3209 4.27216L14.6545 3.46173C14.4483 3.21084 14.133 3.07576 13.8091 3.09949L12.2707 3.21217M12.2707 3.21217C12.0425 3.22828 11.8181 3.18481 11.6183 3.09129M12.2707 3.21217C12.0422 3.22921 11.8181 3.18539 11.6183 3.09129M11.6183 3.09129C11.4173 2.99657 11.2409 2.85092 11.1097 2.66524M11.6183 3.09129C11.417 2.99692 11.2403 2.85166 11.1097 2.66524M2.69454 7.31274L2.69518 7.30946M11.4144 8.50796C11.4144 9.90668 10.255 11.0405 8.82506 11.0405C7.39508 11.0405 6.23567 9.90668 6.23567 8.50796C6.23567 7.10925 7.39508 5.9754 8.82506 5.9754C10.255 5.9754 11.4144 7.10925 11.4144 8.50796Z" stroke="#C9D2D7" stroke-width="2"/>
</svg>
