<svg width="16" height="16" viewBox="0 0 16 16" fill="none" xmlns="http://www.w3.org/2000/svg">
<path d="M11.8889 5.66667L7.6622 9.89336C7.50819 10.0474 7.43119 10.1244 7.3424 10.1532C7.26429 10.1786 7.18015 10.1786 7.10205 10.1532C7.01325 10.1244 6.93625 10.0474 6.78224 9.89336L5.32887 8.43998C5.17486 8.28597 5.09786 8.20897 5.00906 8.18012C4.93096 8.15474 4.84682 8.15474 4.76872 8.18012C4.67992 8.20897 4.60292 8.28597 4.44891 8.43998L1 11.8889M11.8889 5.66667H8.77778M11.8889 5.66667V8.77778M4.73333 15H11.2667C12.5735 15 13.2269 15 13.726 14.7457C14.165 14.522 14.522 14.165 14.7457 13.726C15 13.2269 15 12.5735 15 11.2667V4.73333C15 3.42654 15 2.77315 14.7457 2.27402C14.522 1.83498 14.165 1.47802 13.726 1.25432C13.2269 1 12.5735 1 11.2667 1H4.73333C3.42654 1 2.77315 1 2.27402 1.25432C1.83498 1.47802 1.47802 1.83498 1.25432 2.27402C1 2.77315 1 3.42654 1 4.73333V11.2667C1 12.5735 1 13.2269 1.25432 13.726C1.47802 14.165 1.83498 14.522 2.27402 14.7457C2.77315 15 3.42654 15 4.73333 15Z" stroke="#C9D2D7" stroke-width="2" stroke-linecap="round" stroke-linejoin="round"/>
</svg>
