<svg width="16" height="17" viewBox="0 0 16 17" fill="none" xmlns="http://www.w3.org/2000/svg">
<path d="M6.1062 15.969L6.64762 15.3622C7.31194 14.6177 8.50383 14.7144 9.03933 15.5564C9.53818 16.3408 10.6219 16.4894 11.3136 15.8684L12.295 14.9873" stroke="#6F7D87" stroke-width="1.5" stroke-linecap="round" stroke-linejoin="round"/>
<path d="M1 15.0984L5.0477 13.5416C5.3066 13.442 5.43605 13.3922 5.55716 13.3272C5.66474 13.2695 5.76729 13.2028 5.86375 13.128C5.97234 13.0437 6.07041 12.9456 6.26656 12.7495L14.4941 4.52191C15.2998 3.71623 15.2998 2.40995 14.4941 1.60426C13.6885 0.798579 12.3822 0.798578 11.5765 1.60426L3.34891 9.83183C3.15277 10.028 3.0547 10.126 2.97043 10.2346C2.89558 10.3311 2.82893 10.4336 2.77118 10.5412C2.70617 10.6623 2.65638 10.7918 2.55681 11.0507L1 15.0984ZM1 15.0984L2.50122 11.1953C2.60864 10.916 2.66235 10.7763 2.75448 10.7123C2.835 10.6564 2.93462 10.6353 3.0309 10.6537C3.14107 10.6747 3.24687 10.7805 3.45847 10.9921L5.10628 12.6399C5.31788 12.8515 5.42368 12.9573 5.44472 13.0675C5.4631 13.1638 5.44196 13.2634 5.38606 13.3439C5.32209 13.436 5.18244 13.4898 4.90313 13.5972L1 15.0984Z" stroke="#6F7D87" stroke-width="1.5" stroke-linecap="round" stroke-linejoin="round"/>
<path d="M10.4824 2.69727L13.4001 5.61491" stroke="#6F7D87" stroke-width="1.5"/>
</svg>
