<svg width="16" height="14" viewBox="0 0 16 14" fill="none" xmlns="http://www.w3.org/2000/svg">
<path d="M1.77682 2.80215C1.26572 2.23092 1.01017 1.94531 1.00053 1.70257C0.99216 1.49171 1.08278 1.28903 1.2455 1.15467C1.43283 1 1.81608 1 2.58259 1H12.6128C13.3793 1 13.7625 1 13.9499 1.15467C14.1126 1.28903 14.2032 1.49171 14.1948 1.70257C14.1852 1.94531 13.9296 2.23092 13.4185 2.80215L9.56252 7.11183C9.46064 7.2257 9.4097 7.28263 9.37338 7.34743C9.34116 7.40489 9.31752 7.46676 9.30321 7.53107C9.28708 7.60358 9.28708 7.67998 9.28708 7.83277V11.4461C9.28708 11.5782 9.28708 11.6443 9.26576 11.7014C9.24693 11.7519 9.2163 11.7972 9.17642 11.8334C9.1313 11.8744 9.06995 11.8989 8.94725 11.948L6.64968 12.8671C6.40131 12.9664 6.27712 13.0161 6.17743 12.9954C6.09025 12.9772 6.01375 12.9254 5.96456 12.8512C5.9083 12.7664 5.9083 12.6326 5.9083 12.3651V7.83277C5.9083 7.67998 5.9083 7.60358 5.89216 7.53107C5.87785 7.46676 5.85421 7.40489 5.822 7.34743C5.78567 7.28263 5.73473 7.2257 5.63285 7.11183L1.77682 2.80215Z" stroke="#6F7D87" stroke-width="2" stroke-linecap="round" stroke-linejoin="round"/>
</svg>
