<svg  width="16" height="17" viewBox="0 0 16 17" fill="none" xmlns="http://www.w3.org/2000/svg">
<path d="M14.3167 4.90658L7.84857 8.49998M7.84857 8.49998L1.38045 4.90658M7.84857 8.49998L7.84859 15.7291M14.6972 11.5884V5.41162C14.6972 5.15089 14.6972 5.02052 14.6588 4.90425C14.6248 4.80138 14.5692 4.70696 14.4958 4.6273C14.4128 4.53725 14.2989 4.47394 14.0709 4.34731L8.43988 1.21894C8.22407 1.09905 8.11616 1.0391 8.00189 1.0156C7.90075 0.9948 7.79644 0.9948 7.6953 1.0156C7.58102 1.0391 7.47312 1.09905 7.25731 1.21895L1.62624 4.34732C1.39832 4.47394 1.28436 4.53725 1.20137 4.6273C1.12796 4.70697 1.0724 4.80139 1.03842 4.90425C1 5.02052 1 5.15089 1 5.41163V11.5884C1 11.8491 1 11.9795 1.03842 12.0958C1.0724 12.1986 1.12796 12.293 1.20137 12.3727C1.28436 12.4627 1.39832 12.5261 1.62624 12.6527L7.25731 15.7811C7.47312 15.9009 7.58102 15.9609 7.6953 15.9844C7.79644 16.0052 7.90075 16.0052 8.00189 15.9844C8.11616 15.9609 8.22407 15.9009 8.43988 15.7811L14.0709 12.6527C14.2989 12.5261 14.4128 12.4627 14.4958 12.3727C14.5692 12.293 14.6248 12.1986 14.6588 12.0958C14.6972 11.9795 14.6972 11.8491 14.6972 11.5884Z" stroke="#C9D2D7" stroke-width="2" stroke-linecap="round" stroke-linejoin="round"/>
</svg>
