<svg width="26" height="24" viewBox="0 0 26 24" fill="none" xmlns="http://www.w3.org/2000/svg">
<path d="M3.55091 13.7929L5.36785 21.0418C5.41895 21.2457 5.4445 21.3477 5.47472 21.4367C5.77 22.3062 6.55504 22.9175 7.47237 22.9923C7.56627 23 7.67161 23 7.8823 23C8.14613 23 8.27805 23 8.38918 22.9893C9.48757 22.883 10.3568 22.016 10.4634 20.9204C10.4741 20.8096 10.4741 20.678 10.4741 20.4149V4.01031M20.2821 13.2174C22.5125 13.2174 24.3206 11.414 24.3206 9.18932C24.3206 6.96465 22.5125 5.1612 20.2821 5.1612M10.7626 4.01031H6.43559C3.56789 4.01031 1.24316 6.32903 1.24316 9.18932C1.24317 12.0496 3.56789 14.3683 6.43559 14.3683H10.7626C12.8008 14.3683 15.2941 15.4581 17.2177 16.504C18.3399 17.1141 18.901 17.4192 19.2685 17.3743C19.6092 17.3327 19.8669 17.1801 20.0666 16.9016C20.2821 16.6012 20.2821 16.0003 20.2821 14.7984V3.5802C20.2821 2.37834 20.2821 1.77741 20.0666 1.47707C19.8669 1.19857 19.6092 1.04596 19.2685 1.00433C18.901 0.959438 18.3399 1.26451 17.2177 1.87466C15.2941 2.92054 12.8008 4.01031 10.7626 4.01031Z" stroke="black" stroke-width="2" stroke-linecap="round" stroke-linejoin="round"/>
</svg>
