<svg width="22" height="24" viewBox="0 0 22 24" fill="none" xmlns="http://www.w3.org/2000/svg">
<path d="M14.2725 19.7C14.2725 21.5225 12.7912 23 10.9639 23C9.13669 23 7.6554 21.5225 7.6554 19.7M12.9452 5.66241C13.4255 5.16751 13.7211 4.49318 13.7211 3.75C13.7211 2.23122 12.4867 1 10.9639 1C9.44123 1 8.20682 2.23122 8.20682 3.75C8.20682 4.49318 8.50239 5.16751 8.98267 5.66241M17.581 11.12C17.581 9.60296 16.8839 8.14806 15.6429 7.07535C14.402 6.00264 12.7189 5.4 10.9639 5.4C9.20898 5.4 7.5259 6.00264 6.28495 7.07535C5.04401 8.14806 4.34685 9.60296 4.34685 11.12C4.34685 13.63 3.72278 15.4656 2.9441 16.7791C2.0566 18.2762 1.61286 19.0247 1.63038 19.2035C1.65043 19.4081 1.68735 19.4726 1.85368 19.5939C1.99907 19.7 2.72953 19.7 4.19045 19.7H17.7374C19.1984 19.7 19.9288 19.7 20.0742 19.5939C20.2406 19.4726 20.2775 19.4081 20.2975 19.2035C20.315 19.0247 19.8713 18.2762 18.9838 16.7791C18.2051 15.4656 17.581 13.63 17.581 11.12Z" stroke="black" stroke-width="2" stroke-linecap="round" stroke-linejoin="round"/>
</svg>
