<svg width="17" height="17" viewBox="0 0 17 17" fill="none" xmlns="http://www.w3.org/2000/svg">
<path d="M12.1943 14.4787V12.2109L14.6367 12.2116" fill="#C9D2D7"/>
<path d="M12.1943 12.2109V14.4787L14.6367 12.2116L12.1943 12.2109ZM12.1943 12.2109L15.2473 15.2639" stroke="#C9D2D7" stroke-width="2" stroke-linecap="round" stroke-linejoin="round"/>
<path fill-rule="evenodd" clip-rule="evenodd" d="M2 8.01561C2 7.64008 2.03451 7.27261 2.10053 6.9162H4.27141C4.23084 7.27311 4.20658 7.63299 4.19904 7.99479C4.19875 8.00867 4.19875 8.02256 4.19904 8.03644C4.20658 8.39824 4.23084 8.75812 4.27141 9.11503H2.10053C2.03451 8.75862 2 8.39115 2 8.01561ZM4.67783 4.9162H2.86182C3.52328 3.8224 4.52429 2.95691 5.71875 2.46582C5.27951 3.24079 4.93036 4.06303 4.67783 4.9162ZM6.78279 4.9162C7.08097 4.09764 7.48903 3.32002 7.99804 2.60569C8.50704 3.32002 8.9151 4.09764 9.21329 4.9162H6.78279ZM6.19906 8.01561C6.20755 7.64616 6.23707 7.27914 6.28698 6.9162H9.7091C9.759 7.27914 9.78852 7.64616 9.79701 8.01561C9.78852 8.38507 9.759 8.75208 9.7091 9.11503H6.28698C6.23707 8.75208 6.20755 8.38507 6.19906 8.01561ZM11.797 8.03644C11.7895 8.39824 11.7652 8.75812 11.7247 9.11503H13.8955C13.9616 8.75862 13.9961 8.39115 13.9961 8.01561C13.9961 7.64008 13.9616 7.27261 13.8955 6.9162H11.7247C11.7652 7.27311 11.7895 7.63299 11.797 7.99479C11.7973 8.00867 11.7973 8.02256 11.797 8.03644ZM7.99804 13.4255C7.48903 12.7112 7.08097 11.9336 6.78279 11.115H9.21329C8.9151 11.9336 8.50704 12.7112 7.99804 13.4255ZM4.67783 11.115C4.93036 11.9682 5.27951 12.7904 5.71875 13.5654C4.52429 13.0743 3.52328 12.2088 2.86182 11.115H4.67783ZM10.5881 12.979C10.4901 13.1772 10.3865 13.3728 10.2773 13.5654C10.38 13.5232 10.4813 13.4782 10.5811 13.4305L10.5575 14.951C10.5542 15.1671 10.6196 15.3683 10.7337 15.5336C9.8802 15.8442 8.95891 16.0137 7.99804 16.0137C3.58084 16.0137 0 12.4328 0 8.01561C0 3.59842 3.58084 0.0175781 7.99804 0.0175781C12.4152 0.0175781 15.9961 3.59842 15.9961 8.01561C15.9961 8.93342 15.8415 9.81512 15.5569 10.6361L11.6254 10.5752C11.0732 10.5666 10.6186 11.0074 10.6101 11.5596L10.5881 12.979ZM11.3182 4.9162H13.1343C12.4728 3.82239 11.4718 2.95691 10.2773 2.46582C10.7166 3.24079 11.0657 4.06303 11.3182 4.9162Z" fill="#C9D2D7"/>
</svg>
